<?xml version="1.0" encoding="UTF-8" standalone="no"?>
<!-- Created with Inkscape (http://www.inkscape.org/) -->

<svg
   xmlns:dc="http://purl.org/dc/elements/1.1/"
   xmlns:cc="http://creativecommons.org/ns#"
   xmlns:rdf="http://www.w3.org/1999/02/22-rdf-syntax-ns#"
   xmlns:svg="http://www.w3.org/2000/svg"
   xmlns="http://www.w3.org/2000/svg"
   xmlns:xlink="http://www.w3.org/1999/xlink"
   version="1.1"
   width="600"
   height="480"
   viewBox="0 0 600 480"
   id="svg2">
  <title
     id="title4">Gnuplot</title>
  <desc
     id="desc6">Produced by GNUPLOT 4.6 patchlevel 0 </desc>
  <metadata
     id="metadata200">
    <rdf:RDF>
      <cc:Work
         rdf:about="">
        <dc:format>image/svg+xml</dc:format>
        <dc:type
           rdf:resource="http://purl.org/dc/dcmitype/StillImage" />
        <dc:title>Gnuplot</dc:title>
      </cc:Work>
    </rdf:RDF>
  </metadata>
  <defs
     id="defs198">
    <marker
       refX="0"
       refY="0"
       orient="auto"
       id="Arrow1Lend"
       style="overflow:visible">
      <path
         d="M 0,0 5,-5 -12.5,0 5,5 0,0 z"
         transform="matrix(-0.8,0,0,-0.8,-10,0)"
         id="path4056"
         style="fill-rule:evenodd;stroke:#000000;stroke-width:1pt" />
    </marker>
    <marker
       refX="0"
       refY="0"
       orient="auto"
       id="Arrow1Mend"
       style="overflow:visible">
      <path
         d="M 0,0 5,-5 -12.5,0 5,5 0,0 z"
         transform="matrix(-0.4,0,0,-0.4,-4,0)"
         id="path4062"
         style="fill-rule:evenodd;stroke:#000000;stroke-width:1pt" />
    </marker>
    <defs
       id="defs11">
      <circle
         cx="0"
         cy="0"
         r="0.5"
         id="gpDot"
         style="stroke-width:0.5" />
      <path
         d="M -1,0 H 1 M 0,-1 v 2"
         id="gpPt0"
         style="stroke:currentColor;stroke-width:0.222" />
      <path
         d="M -1,-1 1,1 M 1,-1 -1,1"
         id="gpPt1"
         style="stroke:currentColor;stroke-width:0.222" />
      <path
         d="M -1,0 1,0 M 0,-1 0,1 m -1,-2 2,2 m -2,0 2,-2"
         id="gpPt2"
         style="stroke:currentColor;stroke-width:0.222" />
      <rect
         width="2"
         height="2"
         x="-1"
         y="-1"
         id="gpPt3"
         style="stroke:currentColor;stroke-width:0.222" />
      <rect
         width="2"
         height="2"
         x="-1"
         y="-1"
         id="gpPt4"
         style="fill:currentColor;stroke:currentColor;stroke-width:0.222" />
      <circle
         cx="0"
         cy="0"
         r="1"
         id="gpPt5"
         style="stroke:currentColor;stroke-width:0.222" />
      <use
         id="gpPt6"
         style="fill:currentColor;stroke:none"
         x="0"
         y="0"
         width="600"
         height="480"
         xlink:href="#gpPt5" />
      <path
         d="m 0,-1.33 -1.33,2 2.66,0 z"
         id="gpPt7"
         style="stroke:currentColor;stroke-width:0.222" />
      <use
         id="gpPt8"
         style="fill:currentColor;stroke:none"
         x="0"
         y="0"
         width="600"
         height="480"
         xlink:href="#gpPt7" />
      <use
         transform="scale(-1,-1)"
         id="gpPt9"
         style="stroke:currentColor"
         x="0"
         y="0"
         width="600"
         height="480"
         xlink:href="#gpPt7" />
      <use
         id="gpPt10"
         style="fill:currentColor;stroke:none"
         x="0"
         y="0"
         width="600"
         height="480"
         xlink:href="#gpPt9" />
      <use
         transform="matrix(0.70710678,0.70710678,-0.70710678,0.70710678,0,0)"
         id="gpPt11"
         style="stroke:currentColor"
         x="0"
         y="0"
         width="600"
         height="480"
         xlink:href="#gpPt3" />
      <use
         id="gpPt12"
         style="fill:currentColor;stroke:none"
         x="0"
         y="0"
         width="600"
         height="480"
         xlink:href="#gpPt11" />
    </defs>
  </defs>
  <g
     id="gnuplot_plot_1"
     style="stroke-width:4;stroke-miterlimit:4;stroke-dasharray:none">
    <title
       id="title160">gnuplot_plot_1</title>
    <g
       id="g162"
       style="color:#ff0000;fill:none;stroke:currentColor;stroke-width:4;stroke-linecap:butt;stroke-linejoin:miter;stroke-miterlimit:4;stroke-dasharray:none">
      <g
         transform="translate(498.9,39.2)"
         id="g164"
         style="font-size:15px;text-anchor:end;fill:#000000;stroke:none;font-family:Arial">
        <text
           id="text166">XenServer Ocaml</text>
      </g>
      <path
         d="m 507.2,34.7 42.2,0 m -477.5,380.1 9.3,-0.4 18.7,-1 18.6,-1 18.7,-0.9 18.6,-1.1 18.6,-1.1 18.7,-1.1 18.6,-1.3 18.7,-1.5 18.6,-1.7 18.7,-3.6 18.6,-3.7 18.7,-3.6 18.6,-4.7 18.7,-4.7 18.6,-5.1 18.6,-5.4 18.7,-7.9 18.6,-11 18.7,-16 18.6,-17.1 18.7,-19.4 18.6,-21.7 18.7,-22.7 18.6,-36.4 18.7,-61.5 L 566,16.7 h 0.01"
         id="path168"
         style="stroke-width:4;stroke-miterlimit:4;stroke-dasharray:none" />
    </g>
  </g>
  <g
     id="gnuplot_plot_3"
     style="stroke-width:4;stroke-miterlimit:4;stroke-dasharray:none">
    <title
       id="title182">gnuplot_plot_3</title>
    <g
       id="g184"
       style="color:#0000ff;fill:none;stroke:currentColor;stroke-width:4;stroke-linecap:butt;stroke-linejoin:miter;stroke-miterlimit:4;stroke-dasharray:none">
      <g
         transform="translate(498.9,75.2)"
         id="g186"
         style="font-size:15px;text-anchor:end;fill:#000000;stroke:none;font-family:Arial">
        <text
           id="text188">XenServer Csharp</text>
      </g>
      <path
         d="m 507.2,70.7 42.2,0 m -477.5,344.4 11,-0.7 21.9,-1.9 22,-2.1 22,-2.3 21.9,-2.3 22,-2.4 21.9,-2.3 22,-2.5 22,-3.1 21.9,-4.3 22,-5.7 21.9,-7.3 22,-8.2 22,-13.4 21.9,-15.4 22,-21.8 21.9,-27.1 22,-30.1 22,-30.6 21.9,-31.1 22,-41 21.9,-43.2 22,-99.6 h 0.01"
         id="path190"
         style="stroke-width:4;stroke-miterlimit:4;stroke-dasharray:none" />
    </g>
  </g>
  <rect
     width="600"
     height="480"
     x="0"
     y="0"
     id="rect9"
     style="fill:none" />
  <g
     id="g27"
     style="color:#ffffff;fill:none;stroke:currentColor;stroke-width:1;stroke-linecap:butt;stroke-linejoin:miter" />
  <g
     id="g29"
     style="color:#000000;fill:none;stroke:currentColor;stroke-width:1;stroke-linecap:butt;stroke-linejoin:miter">
    <path
       d="m 71.9,422.4 9,0 m 485.1,0 -9,0 h 0.01"
       id="path31" />
    <g
       transform="translate(63.6,426.9)"
       id="g33"
       style="font-size:15px;text-anchor:end;fill:#000000;stroke:none;font-family:Arial">
      <text
         id="text35">0</text>
    </g>
    <path
       d="m 71.9,381.8 9,0 m 485.1,0 -9,0 h 0.01"
       id="path37" />
    <g
       transform="translate(63.6,386.3)"
       id="g39"
       style="font-size:15px;text-anchor:end;fill:#000000;stroke:none;font-family:Arial">
      <text
         id="text41">0.1</text>
    </g>
    <path
       d="m 71.9,341.3 9,0 m 485.1,0 -9,0 h 0.01"
       id="path43" />
    <g
       transform="translate(63.6,345.8)"
       id="g45"
       style="font-size:15px;text-anchor:end;fill:#000000;stroke:none;font-family:Arial">
      <text
         id="text47">0.2</text>
    </g>
    <path
       d="m 71.9,300.7 9,0 m 485.1,0 -9,0 h 0.01"
       id="path49" />
    <g
       transform="translate(63.6,305.2)"
       id="g51"
       style="font-size:15px;text-anchor:end;fill:#000000;stroke:none;font-family:Arial">
      <text
         id="text53">0.3</text>
    </g>
    <path
       d="m 71.9,260.1 9,0 m 485.1,0 -9,0 h 0.01"
       id="path55" />
    <g
       transform="translate(63.6,264.6)"
       id="g57"
       style="font-size:15px;text-anchor:end;fill:#000000;stroke:none;font-family:Arial">
      <text
         id="text59">0.4</text>
    </g>
    <path
       d="m 71.9,219.5 9,0 m 485.1,0 -9,0 h 0.01"
       id="path61" />
    <g
       transform="translate(63.6,224)"
       id="g63"
       style="font-size:15px;text-anchor:end;fill:#000000;stroke:none;font-family:Arial">
      <text
         id="text65">0.5</text>
    </g>
    <path
       d="m 71.9,179 9,0 m 485.1,0 -9,0 h 0.01"
       id="path67" />
    <g
       transform="translate(63.6,183.5)"
       id="g69"
       style="font-size:15px;text-anchor:end;fill:#000000;stroke:none;font-family:Arial">
      <text
         id="text71">0.6</text>
    </g>
    <path
       d="m 71.9,138.4 9,0 m 485.1,0 -9,0 h 0.01"
       id="path73" />
    <g
       transform="translate(63.6,142.9)"
       id="g75"
       style="font-size:15px;text-anchor:end;fill:#000000;stroke:none;font-family:Arial">
      <text
         id="text77">0.7</text>
    </g>
    <path
       d="m 71.9,97.8 9,0 m 485.1,0 -9,0 h 0.01"
       id="path79" />
    <g
       transform="translate(63.6,102.3)"
       id="g81"
       style="font-size:15px;text-anchor:end;fill:#000000;stroke:none;font-family:Arial">
      <text
         id="text83">0.8</text>
    </g>
    <path
       d="m 71.9,57.3 9,0 m 485.1,0 -9,0 h 0.01"
       id="path85" />
    <g
       transform="translate(63.6,61.8)"
       id="g87"
       style="font-size:15px;text-anchor:end;fill:#000000;stroke:none;font-family:Arial">
      <text
         id="text89">0.9</text>
    </g>
    <path
       d="m 71.9,16.7 9,0 m 485.1,0 -9,0 h 0.01"
       id="path91" />
    <g
       transform="translate(63.6,21.2)"
       id="g93"
       style="font-size:15px;text-anchor:end;fill:#000000;stroke:none;font-family:Arial">
      <text
         id="text95">1</text>
    </g>
    <path
       d="m 71.9,422.4 0,-9 m 0,-396.7 0,9 h 0.01"
       id="path97" />
    <g
       transform="translate(71.9,444.9)"
       id="g99"
       style="font-size:15px;text-anchor:middle;fill:#000000;stroke:none;font-family:Arial">
      <text
         id="text101">0.5</text>
    </g>
    <path
       d="m 170.7,422.4 0,-9 m 0,-396.7 0,9 h 0.01"
       id="path103" />
    <g
       transform="translate(170.7,444.9)"
       id="g105"
       style="font-size:15px;text-anchor:middle;fill:#000000;stroke:none;font-family:Arial">
      <text
         id="text107">0.6</text>
    </g>
    <path
       d="m 269.5,422.4 0,-9 m 0,-396.7 0,9 h 0.01"
       id="path109" />
    <g
       transform="translate(269.5,444.9)"
       id="g111"
       style="font-size:15px;text-anchor:middle;fill:#000000;stroke:none;font-family:Arial">
      <text
         id="text113">0.7</text>
    </g>
    <path
       d="m 368.4,422.4 0,-9 m 0,-396.7 0,9 h 0.01"
       id="path115" />
    <g
       transform="translate(368.4,444.9)"
       id="g117"
       style="font-size:15px;text-anchor:middle;fill:#000000;stroke:none;font-family:Arial">
      <text
         id="text119">0.8</text>
    </g>
    <path
       d="m 467.2,422.4 0,-9 m 0,-396.7 0,9 h 0.01"
       id="path121" />
    <g
       transform="translate(467.2,444.9)"
       id="g123"
       style="font-size:15px;text-anchor:middle;fill:#000000;stroke:none;font-family:Arial">
      <text
         id="text125">0.9</text>
    </g>
    <path
       d="m 566,422.4 0,-9 m 0,-396.7 0,9 h 0.01"
       id="path127" />
    <g
       transform="translate(566,444.9)"
       id="g129"
       style="font-size:15px;text-anchor:middle;fill:#000000;stroke:none;font-family:Arial">
      <text
         id="text131">1</text>
    </g>
    <path
       d="m 71.9,16.7 0,405.7 494.1,0 0,-405.7 -494.1,0 z m 0,0 h 0.01"
       id="path133" />
    <g
       transform="matrix(0,-1,1,0,17.6,219.6)"
       id="g135"
       style="font-size:15px;text-anchor:middle;fill:#000000;stroke:none;font-family:Arial">
      <text
         id="text137">Cumulative contributions (changesets)</text>
    </g>
    <g
       transform="matrix(0,-1,1,0,588.4,219.6)"
       id="g139"
       style="font-size:15px;text-anchor:middle;fill:#000000;stroke:none;font-family:Arial">
      <text
         id="text141" />
    </g>
    <g
       transform="translate(318.9,471.9)"
       id="g143"
       style="font-size:15px;text-anchor:middle;fill:#000000;stroke:none;font-family:Arial">
      <text
         id="text145">Fraction of developers</text>
    </g>
    <g
       transform="translate(318.9,30.2)"
       id="g147"
       style="font-size:15px;text-anchor:middle;fill:#000000;stroke:none;font-family:Arial">
      <text
         id="text149" />
    </g>
    <g
       transform="translate(318.9,30.3)"
       id="g151"
       style="font-size:15px;text-anchor:middle;fill:#000000;stroke:none;font-family:Arial">
      <text
         id="text153" />
    </g>
    <g
       transform="translate(22.1,475.5)"
       id="g155"
       style="font-size:15px;text-anchor:start;fill:#000000;stroke:none;font-family:Arial">
      <text
         id="text157" />
    </g>
  </g>
  <g
     id="gnuplot_plot_2"
     style="stroke-width:4;stroke-miterlimit:4;stroke-dasharray:none">
    <title
       id="title171">gnuplot_plot_2</title>
    <g
       id="g173"
       style="color:#008000;fill:none;stroke:currentColor;stroke-width:4;stroke-linecap:butt;stroke-linejoin:miter;stroke-miterlimit:4;stroke-dasharray:none">
      <g
         transform="translate(498.9,57.2)"
         id="g175"
         style="font-size:15px;text-anchor:end;fill:#000000;stroke:none;font-family:Arial">
        <text
           id="text177">Linux 2.6</text>
      </g>
      <path
         d="m 507.2,52.7 42.2,0 m -477.5,362.7 0.1,0 0.1,0 0.1,0 0.1,0 0.1,0 0.1,0 0.1,0 0.1,0 0.1,0 0.1,0 0.1,0 0.1,0 0.1,0 0.1,0 0.1,0 0.1,0 0.1,0 0.1,0 0.1,0 0.1,0 0.1,-0.1 0.1,0 0.1,0 0.1,0 0.1,0 0.1,0 0.1,0 0.1,0 0.1,0 0.1,0 0.1,0 0.1,0 0.1,0 0.1,0 0.1,0 0.1,0 0.1,0 0.1,0 0.1,0 0.1,0 0.1,0 0.1,0 0.1,0 0.1,0 0.1,0 0.1,0 0.1,0 0.1,0 0.1,0 0.1,0 0.1,0 0.1,0 0.1,0 0.1,0 0.1,0 0.1,0 0.1,0 0.1,0 0.1,0 0.1,0 0.1,0 0.1,0 0.1,-0.1 0.1,0 0.1,0 0.1,0 0.1,0 0.1,0 0.1,0 0.1,0 0.1,0 0.1,0 0.1,0 0.1,0 0.1,0 0.1,0 0.1,0 0.1,0 0.1,0 0.1,0 0.1,0 0.1,0 0.1,0 0.1,0 0.1,0 0.1,0 0.1,0 0.1,0 0.1,0 0.1,0 0.1,0 0.1,0 0.1,0 0.1,0 0.1,0 0.1,0 0.1,0 0.1,0 0.1,0 0.1,0 0.1,0 0.1,0 0.1,0 0.1,-0.1 0.1,0 0.1,0 0.1,0 0.1,0 0.1,0 0.1,0 0.1,0 0.1,0 0.1,0 0.1,0 0.1,0 0.1,0 0.1,0 0.1,0 0.1,0 0.1,0 0.1,0 0.1,0 0.1,0 0.1,0 0.1,0 0.1,0 0.1,0 0.1,0 0.1,0 0.1,0 0.1,0 0.1,0 0.1,0 0.1,0 0.1,0 0.1,0 0.1,0 0.1,0 0.1,0 0.1,0 0.1,0 0.1,0 0.1,0 0.1,0 0.1,0 0.1,-0.1 0.1,0 0.1,0 0.1,0 0.1,0 0.1,0 0.1,0 0.1,0 0.1,0 0.1,0 0.1,0 0.1,0 0.1,0 0.1,0 0.1,0 0.1,0 0.1,0 0.1,0 0.1,0 0.1,0 0.1,0 0.1,0 0.1,0 0.1,0 0.1,0 0.1,0 0.1,0 0.1,0 0.1,0 0.1,0 0.1,0 0.1,0 0.1,0 0.1,0 0.1,0 0.1,0 0.1,0 0.1,0 0.1,0 0.1,0 0.1,-0.1 0.1,0 0.1,0 0.1,0 0.1,0 0.1,0 0.1,0 0.1,0 0.1,0 0.1,0 0.1,0 0.1,0 0.1,0 0.1,0 0.1,0 0.1,0 0.1,0 0.1,0 0.1,0 0.1,0 0.1,0 0.1,0 0.1,0 0.1,0 0.1,0 0.1,0 0.1,0 0.1,0 0.1,0 0.1,0 0.1,0 0.1,0 0.1,0 0.1,0 0.1,0 0.1,0 0.1,0 0.1,0 0.1,0 0.1,0 0.1,0 0.1,-0.1 0.1,0 0.1,0 0.1,0 0.1,0 0.1,0 0.1,0 0.1,0 0.1,0 0.1,0 0.1,0 0.1,0 0.1,0 0.1,0 0.1,0 0.1,0 0.1,0 0.1,0 0.1,0 0.1,0 0.1,0 0.1,0 0.1,0 0.1,0 0.1,0 0.1,0 0.1,0 0.1,0 0.1,0 0.1,0 0.1,0 0.1,0 0.1,0 0.1,0 0.1,0 0.1,0 0.1,0 0.1,0 0.1,0 0.1,0 0.1,0 0.1,0 0.1,-0.1 0.1,0 0.1,0 0.1,0 0.1,0 0.1,0 0.1,0 0.1,0 0.1,0 0.1,0 0.1,0 0.1,0 0.1,0 0.1,0 0.1,0 0.1,0 0.1,0 0.1,0 0.1,0 0.1,0 0.1,0 0.1,0 0.1,0 0.1,0 0.1,0 0.1,0 0.1,0 0.1,0 0.1,0 0.1,0 0.1,0 0.1,0 0.1,0 0.1,0 0.1,0 0.1,0 0.1,0 0.1,0 0.1,0 0.1,0 0.1,0 0.1,-0.1 0.1,0 0.1,0 0.1,0 0.1,0 0.1,0 0.1,0 0.1,0 0.1,0 0.1,0 0.1,0 0.1,0 0.1,0 0.1,0 0.1,0 0.1,0 0.1,0 0.1,0 0.1,0 0.1,0 0.1,0 0.1,0 0.1,0 0.1,0 0.1,0 0.1,0 0.1,0 0.1,0 0.1,0 0.1,0 0.1,0 0.1,0 0.1,0 0.1,0 0.1,0 0.1,0 0.1,0 0.1,0 0.1,0 0.1,0 0.1,0 0.1,0 0.1,-0.1 0.1,0 0.1,0 0.1,0 0.1,0 0.1,0 0.1,0 0.1,0 0.1,0 0.1,0 0.1,0 0.1,0 0.1,0 0.1,0 0.1,0 0.1,0 0.1,0 0.1,0 0.1,0 0.1,0 0.1,0 0.1,0 0.1,0 0.1,0 0.1,0 0.1,0 0.1,0 0.1,0 0.1,0 0.1,0 0.1,0 0.1,0 0.1,0 0.1,0 0.1,0 0.1,0 0.1,0 0.1,0 0.1,0 0.1,0 0.1,0 0.1,-0.1 0.1,0 0.1,0 0.1,0 0.1,0 0.1,0 0.1,0 0.1,0 0.1,0 0.1,0 0.1,0 0.1,0 0.1,0 0.1,0 0.1,0 0.1,0 0.1,0 0.1,0 0.1,0 0.1,0 0.1,0 0.1,0 0.1,0 0.1,0 0.1,0 0.1,0 0.1,0 0.1,0 0.1,0 0.1,-0.1 0.1,0 0.1,0 0.1,0 0.1,0 0.1,0 0.1,0 0.1,0 0.1,0 0.1,0 0.1,0 0.1,0 0.1,0 0.1,0 0.1,0 0.1,0 0.1,0 0.1,0 0.1,0 0.1,0 0.1,0 0.1,0 0.1,0 0.1,0 0.1,0 0.1,0 0.1,0 0.1,-0.1 0.1,0 0.1,0 0.1,0 0.1,0 0.1,0 0.1,0 0.1,0 0.1,0 0.1,0 0.1,0 0.1,0 0.1,0 0.1,0 0.1,0 0.1,0 0.1,0 0.1,0 0.1,0 0.1,0 0.1,0 0.1,0 0.1,0 0.1,0 0.1,0 0.1,0 0.1,0 0.1,0 0.1,-0.1 0.1,0 0.1,0 0.1,0 0.1,0 0.1,0 0.1,0 0.1,0 0.1,0 0.1,0 0.1,0 0.1,0 0.1,0 0.1,0 0.1,0 0.1,0 0.1,0 0.1,0 0.1,0 0.1,0 0.1,0 0.1,0 0.1,0 0.1,0 0.1,0 0.1,0 0.1,-0.1 0.1,0 0.1,0 0.1,0 0.1,0 0.1,0 0.1,0 0.1,0 0.1,0 0.1,0 0.1,0 0.1,0 0.1,0 0.1,0 0.1,0 0.1,0 0.1,0 0.1,0 0.1,0 0.1,0 0.1,0 0.1,0 0.1,0 0.1,0 0.1,0 0.1,0 0.1,0 0.1,0 0.1,-0.1 0.1,0 0.1,0 0.1,0 0.1,0 0.1,0 0.1,0 0.1,0 0.1,0 0.1,0 0.1,0 0.1,0 0.1,0 0.1,0 0.1,0 0.1,0 0.1,0 0.1,0 0.1,0 0.1,0 0.1,0 0.1,0 0.1,0 0.1,0 0.1,0 0.1,0 0.1,0 0.1,0 0.1,-0.1 0.1,0 0.1,0 0.1,0 0.1,0 0.1,0 0.1,0 0.1,0 0.1,0 0.1,0 0.1,0 0.1,0 0.1,0 0.1,0 0.1,0 0.1,0 0.1,0 0.1,0 0.1,0 0.1,0 0.1,0 0.1,0 0.1,0 0.1,0 0.1,0 0.1,0 0.1,0 0.1,-0.1 0.1,0 0.1,0 0.1,0 0.1,0 0.1,0 0.1,0 0.1,0 0.1,0 0.1,0 0.1,0 0.1,0 0.1,0 0.1,0 0.1,0 0.1,0 0.1,0 0.1,0 0.1,0 0.1,0 0.1,0 0.1,0 0.1,0 0.1,0 0.1,0 0.1,0 0.1,0 0.1,0 0.1,-0.1 0.1,0 0.1,0 0.1,0 0.1,0 0.1,0 0.1,0 0.1,0 0.1,0 0.1,0 0.1,0 0.1,0 0.1,0 0.1,0 0.1,0 0.1,0 0.1,0 0.1,0 0.1,0 0.1,0 0.1,0 0.1,0 0.1,0 0.1,0 0.1,0 0.1,0 0.1,0 0.1,-0.1 0.1,0 0.1,0 0.1,0 0.1,0 0.1,0 0.1,0 0.1,0 0.1,0 0.1,0 0.1,0 0.1,0 0.1,0 0.1,0 0.1,0 0.1,0 0.1,0 0.1,0 0.1,0 0.1,0 0.1,0 0.1,0 0.1,0 0.1,0 0.1,0 0.1,0 0.1,0 0.1,0 0.1,-0.1 0.1,0 0.1,0 0.1,0 0.1,0 0.1,0 0.1,0 0.1,0 0.1,0 0.1,0 0.1,0 0.1,0 0.1,0 0.1,0 0.1,0 0.1,0 0.1,0 0.1,0 0.1,0 0.1,0 0.1,0 0.1,0 0.1,0 0.1,0 0.1,0 0.1,0 0.1,0 0.1,0 0.1,-0.1 0.1,0 0.1,0 0.1,0 0.1,0 0.1,0 0.1,0 0.1,0 0.1,0 0.1,0 0.1,0 0.1,0 0.1,0 0.1,0 0.1,0 0.1,0 0.1,0 0.1,0 0.1,0 0.1,0 0.1,0 0.1,0 0.1,0 0.1,0 0.1,0 0.1,0 0.1,0 0.1,-0.1 0.1,0 0.1,0 0.1,0 0.1,0 0.1,0 0.1,0 0.1,0 0.1,0 0.1,0 0.1,0 0.1,0 0.1,0 0.1,0 0.1,0 0.1,0 0.1,0 0.1,0 0.1,0 0.1,0 0.1,0 0.1,0 0.1,0 0.1,0 0.1,0 0.1,0 0.1,0 0.1,0 0.1,-0.1 0.1,0 0.1,0 0.1,0 0.1,0 0.1,0 0.1,0 0.1,0 0.1,0 0.1,0 0.1,0 0.1,0 0.1,0 0.1,0 0.1,0 0.1,0 0.1,0 0.1,0 0.1,0 0.1,0 0.1,0 0.1,0 0.1,0 0.1,0 0.1,0 0.1,0 0.1,0 0.1,0 0.1,-0.1 0.1,0 0.1,0 0.1,0 0.1,0 0.1,0 0.1,0 0.1,0 0.1,0 0.1,0 0.1,0 0.1,0 0.1,0 0.1,0 0.1,0 0.1,0 0.1,0 0.1,0 0.1,0 0.1,0 0.1,0 0.1,0 0.1,0 0.1,0 0.1,0 0.1,0 0.1,0 0.1,-0.1 0.1,0 0.1,0 0.1,0 0.1,0 0.1,0 0.1,0 0.1,0 0.1,0 0.1,0 0.1,0 0.1,0 0.1,0 0.1,0 0.1,0 0.1,0 0.1,0 0.1,0 0.1,0 0.1,0 0.1,0 0.1,0 0.1,0 0.1,0 0.1,0 0.1,0 0.1,0 0.1,-0.1 0.1,0 0.1,0 0.1,0 0.1,0 0.1,0 0.1,0 0.1,0 0.1,0 0.1,0 0.1,0 0.1,0 0.1,0 0.1,0 0.1,0 0.1,0 0.1,0 0.1,0 0.1,0 0.1,0 0.1,0 0.1,0 0.1,0 0.1,0 0.1,0 0.1,0 0.1,0 0.1,-0.1 0.1,0 0.1,0 0.1,0 0.1,0 0.1,0 0.1,0 0.1,0 0.1,0 0.1,0 0.1,0 0.1,0 0.1,0 0.1,0 0.1,0 0.1,0 0.1,0 0.1,0 0.1,0 0.1,0 0.1,0 0.1,0 0.1,0 0.1,0 0.1,0 0.1,0 0.1,0 0.1,0 0.1,-0.1 0.1,0 0.1,0 0.1,0 0.1,0 0.1,0 0.1,0 0.1,0 0.1,0 0.1,0 0.1,0 0.1,0 0.1,0 0.1,0 0.1,0 0.1,0 0.1,0 0.1,0 0.1,0 0.1,0 0.1,0 0.1,0 0.1,0 0.1,0 0.1,0 0.1,0 0.1,0 0.1,0 0.1,-0.1 0.1,0 0.1,0 0.1,0 0.1,0 0.1,0 0.1,0 0.1,0 0.1,0 0.1,0 0.1,0 0.1,0 0.1,0 0.1,0 0.1,0 0.1,0 0.1,0 0.1,0 0.1,0 0.1,0 0.1,0 0.1,0 0.1,0 0.1,0 0.1,0 0.1,0 0.1,0 0.1,-0.1 0.1,0 0.1,0 0.1,0 0.1,0 0.1,0 0.1,0 0.1,0 0.1,0 0.1,0 0.1,0 0.1,0 0.1,0 0.1,0 0.1,0 0.1,0 0.1,0 0.1,0 0.1,0 0.1,0 0.1,0 0.1,0 0.1,0 0.1,0 0.1,0 0.1,0 0.1,0 0.1,0 0.1,-0.1 0.1,0 0.1,0 0.1,0 0.1,0 0.1,0 0.1,0 0.1,0 0.1,0 0.1,0 0.1,0 0.1,0 0.1,0 0.1,0 0.1,0 0.1,0 0.1,0 0.1,0 0.1,0 0.1,0 0.1,0 0.1,0 0.1,0 0.1,0 0.1,0 0.1,0 0.1,0 0.1,0 0.1,-0.1 0.1,0 0.1,0 0.1,0 0.1,0 0.1,0 0.1,0 0.1,0 0.1,0 0.1,0 0.1,0 0.1,0 0.1,0 0.1,0 0.1,0 0.1,0 0.1,0 0.1,0 0.1,0 0.1,0 0.1,0 0.1,0 0.1,0 0.1,0 0.1,0 0.1,0 0.1,0 0.1,-0.1 0.1,0 0.1,0 0.1,0 0.1,0 0.1,0 0.1,0 0.1,0 0.1,0 0.1,0 0.1,0 0.1,0 0.1,0 0.1,0 0.1,0 0.1,0 0.1,0 0.1,0 0.1,0 0.1,0 0.1,0 0.1,0 0.1,0 0.1,0 0.1,0 0.1,0 0.1,0 0.1,0 0.1,-0.1 0.1,0 0.1,0 0.1,0 0.1,0 0.1,0 0.1,0 0.1,0 0.1,0 0.1,0 0.1,0 0.1,0 0.1,0 0.1,0 0.1,0 0.1,0 0.1,0 0.1,0 0.1,0 0.1,0 0.1,0 0.1,0 0.1,0 0.1,0 0.1,0 0.1,0 0.1,0 0.1,-0.1 0.1,0 0.1,0 0.1,0 0.1,0 0.1,0 0.1,0 0.1,0 0.1,0 0.1,0 0.1,0 0.1,0 0.1,0 0.1,0 0.1,0 0.1,0 0.1,0 0.1,0 0.1,0 0.1,0 0.1,0 0.1,-0.1 0.1,0 0.1,0 0.1,0 0.1,0 0.1,0 0.1,0 0.1,0 0.1,0 0.1,0 0.1,0 0.1,0 0.1,0 0.1,0 0.1,0 0.1,0 0.1,0 0.1,0 0.1,0 0.1,0 0.1,-0.1 0.1,0 0.1,0 0.1,0 0.1,0 0.1,0 0.1,0 0.1,0 0.1,0 0.1,0 0.1,0 0.1,0 0.1,0 0.1,0 0.1,0 0.1,0 0.1,0 0.1,0 0.1,0 0.1,0 0.1,0 0.1,-0.1 0.1,0 0.1,0 0.1,0 0.1,0 0.1,0 0.1,0 0.1,0 0.1,0 0.1,0 0.1,0 0.1,0 0.1,0 0.1,0 0.1,0 0.1,0 0.1,0 0.1,0 0.1,0 0.1,0 0.1,-0.1 0.1,0 0.1,0 0.1,0 0.1,0 0.1,0 0.1,0 0.1,0 0.1,0 0.1,0 0.1,0 0.1,0 0.1,0 0.1,0 0.1,0 0.1,0 0.1,0 0.1,0 0.1,0 0.1,0 0.1,-0.1 0.1,0 0.1,0 0.1,0 0.1,0 0.1,0 0.1,0 0.1,0 0.1,0 0.1,0 0.1,0 0.1,0 0.1,0 0.1,0 0.1,0 0.1,0 0.1,0 0.1,0 0.1,0 0.1,0 0.1,0 0.1,-0.1 0.1,0 0.1,0 0.1,0 0.1,0 0.1,0 0.1,0 0.1,0 0.1,0 0.1,0 0.1,0 0.1,0 0.1,0 0.1,0 0.1,0 0.1,0 0.1,0 0.1,0 0.1,0 0.1,0 0.1,0 0.1,-0.1 0.1,0 0.1,0 0.1,0 0.1,0 0.1,0 0.1,0 0.1,0 0.1,0 0.1,0 0.1,0 0.1,0 0.1,0 0.1,0 0.1,0 0.1,0 0.1,0 0.1,0 0.1,0 0.1,0 0.1,0 0.1,-0.1 0.1,0 0.1,0 0.1,0 0.1,0 0.1,0 0.1,0 0.1,0 0.1,0 0.1,0 0.1,0 0.1,0 0.1,0 0.1,0 0.1,0 0.1,0 0.1,0 0.1,0 0.1,0 0.1,0 0.1,-0.1 0.1,0 0.1,0 0.1,0 0.1,0 0.1,0 0.1,0 0.1,0 0.1,0 0.1,0 0.1,0 0.1,0 0.1,0 0.1,0 0.1,0 0.1,0 0.1,0 0.1,0 0.1,0 0.1,0 0.1,0 0.1,-0.1 0.1,0 0.1,0 0.1,0 0.1,0 0.1,0 0.1,0 0.1,0 0.1,0 0.1,0 0.1,0 0.1,0 0.1,0 0.1,0 0.1,0 0.1,0 0.1,0 0.1,0 0.1,0 0.1,0 0.1,0 0.1,-0.1 0.1,0 0.1,0 0.1,0 0.1,0 0.1,0 0.1,0 0.1,0 0.1,0 0.1,0 0.1,0 0.1,0 0.1,0 0.1,0 0.1,0 0.1,0 0.1,0 0.1,0 0.1,0 0.1,0 0.1,-0.1 0.1,0 0.1,0 0.1,0 0.1,0 0.1,0 0.1,0 0.1,0 0.1,0 0.1,0 0.1,0 0.1,0 0.1,0 0.1,0 0.1,0 0.1,0 0.1,0 0.1,0 0.1,0 0.1,0 0.1,0 0.1,-0.1 0.1,0 0.1,0 0.1,0 0.1,0 0.1,0 0.1,0 0.1,0 0.1,0 0.1,0 0.1,0 0.1,0 0.1,0 0.1,0 0.1,0 0.1,0 0.1,0 0.1,0 0.1,0 0.1,0 0.1,0 0.1,-0.1 0.1,0 0.1,0 0.1,0 0.1,0 0.1,0 0.1,0 0.1,0 0.1,0 0.1,0 0.1,0 0.1,0 0.1,0 0.1,0 0.1,0 0.1,0 0.1,0 0.1,0 0.1,0 0.1,0 0.1,0 0.1,-0.1 0.1,0 0.1,0 0.1,0 0.1,0 0.1,0 0.1,0 0.1,0 0.1,0 0.1,0 0.1,0 0.1,0 0.1,0 0.1,0 0.1,0 0.1,0 0.1,0 0.1,0 0.1,0 0.1,0 0.1,-0.1 0.1,0 0.1,0 0.1,0 0.1,0 0.1,0 0.1,0 0.1,0 0.1,0 0.1,0 0.1,0 0.1,0 0.1,0 0.1,0 0.1,0 0.1,0 0.1,0 0.1,0 0.1,0 0.1,0 0.1,0 0.1,-0.1 0.1,0 0.1,0 0.1,0 0.1,0 0.1,0 0.1,0 0.1,0 0.1,0 0.1,0 0.1,0 0.1,0 0.1,0 0.1,0 0.1,0 0.1,0 0.1,0 0.1,0 0.1,0 0.1,0 0.1,0 0.1,-0.1 0.1,0 0.1,0 0.1,0 0.1,0 0.1,0 0.1,0 0.1,0 0.1,0 0.1,0 0.1,0 0.1,0 0.1,0 0.1,0 0.1,0 0.1,0 0.1,0 0.1,0 0.1,0 0.1,0 0.1,-0.1 0.1,0 0.1,0 0.1,0 0.1,0 0.1,0 0.1,0 0.1,0 0.1,0 0.1,0 0.1,0 0.1,0 0.1,0 0.1,0 0.1,0 0.1,0 0.1,0 0.1,0 0.1,0 0.1,0 0.1,-0.1 0.1,0 0.1,0 0.1,0 0.1,0 0.1,0 0.1,0 0.1,0 0.1,0 0.1,0 0.1,0 0.1,0 0.1,0 0.1,0 0.1,0 0.1,0 0.1,0 0.1,0 0.1,-0.1 0.1,0 0.1,0 0.1,0 0.1,0 0.1,0 0.1,0 0.1,0 0.1,0 0.1,0 0.1,0 0.1,0 0.1,0 0.1,0 0.1,0 0.1,0 0.1,0 0.1,-0.1 0.1,0 0.1,0 0.1,0 0.1,0 0.1,0 0.1,0 0.1,0 0.1,0 0.1,0 0.1,0 0.1,0 0.1,0 0.1,0 0.1,0 0.1,0 0.1,-0.1 0.1,0 0.1,0 0.1,0 0.1,0 0.1,0 0.1,0 0.1,0 0.1,0 0.1,0 0.1,0 0.1,0 0.1,0 0.1,0 0.1,0 0.1,0 0.1,0 0.1,-0.1 0.1,0 0.1,0 0.1,0 0.1,0 0.1,0 0.1,0 0.1,0 0.1,0 0.1,0 0.1,0 0.1,0 0.1,0 0.1,0 0.1,0 0.1,0 0.1,0 0.1,-0.1 0.1,0 0.1,0 0.1,0 0.1,0 0.1,0 0.1,0 0.1,0 0.1,0 0.1,0 0.1,0 0.1,0 0.1,0 0.1,0 0.1,0 0.1,0 0.1,-0.1 0.1,0 0.1,0 0.1,0 0.1,0 0.1,0 0.1,0 0.1,0 0.1,0 0.1,0 0.1,0 0.1,0 0.1,0 0.1,0 0.1,0 0.1,0 0.1,0 0.1,-0.1 0.1,0 0.1,0 0.1,0 0.1,0 0.1,0 0.1,0 0.1,0 0.1,0 0.1,0 0.1,0 0.1,0 0.1,0 0.1,0 0.1,0 0.1,0 0.1,-0.1 0.1,0 0.1,0 0.1,0 0.1,0 0.1,0 0.1,0 0.1,0 0.1,0 0.1,0 0.1,0 0.1,0 0.1,0 0.1,0 0.1,0 0.1,0 0.1,0 0.1,-0.1 0.1,0 0.1,0 0.1,0 0.1,0 0.1,0 0.1,0 0.1,0 0.1,0 0.1,0 0.1,0 0.1,0 0.1,0 0.1,0 0.1,0 0.1,0 0.1,-0.1 0.1,0 0.1,0 0.1,0 0.1,0 0.1,0 0.1,0 0.1,0 0.1,0 0.1,0 0.1,0 0.1,0 0.1,0 0.1,0 0.1,0 0.1,0 0.1,0 0.1,-0.1 0.1,0 0.1,0 0.1,0 0.1,0 0.1,0 0.1,0 0.1,0 0.1,0 0.1,0 0.1,0 0.1,0 0.1,0 0.1,0 0.1,0 0.1,0 0.1,0 0.1,-0.1 0.1,0 0.1,0 0.1,0 0.1,0 0.1,0 0.1,0 0.1,0 0.1,0 0.1,0 0.1,0 0.1,0 0.1,0 0.1,0 0.1,0 0.1,0 0.1,-0.1 0.1,0 0.1,0 0.1,0 0.1,0 0.1,0 0.1,0 0.1,0 0.1,0 0.1,0 0.1,0 0.1,0 0.1,0 0.1,0 0.1,0 0.1,0 0.1,0 0.1,-0.1 0.1,0 0.1,0 0.1,0 0.1,0 0.1,0 0.1,0 0.1,0 0.1,0 0.1,0 0.1,0 0.1,0 0.1,0 0.1,0 0.1,0 0.1,0 0.1,-0.1 0.1,0 0.1,0 0.1,0 0.1,0 0.1,0 0.1,0 0.1,0 0.1,0 0.1,0 0.1,0 0.1,0 0.1,0 0.1,0 0.1,0 0.1,0 0.1,0 0.1,-0.1 0.1,0 0.1,0 0.1,0 0.1,0 0.1,0 0.1,0 0.1,0 0.1,0 0.1,0 0.1,0 0.1,0 0.1,0 0.1,0 0.1,0 0.1,0 0.1,-0.1 0.1,0 0.1,0 0.1,0 0.1,0 0.1,0 0.1,0 0.1,0 0.1,0 0.1,0 0.1,0 0.1,0 0.1,0 0.1,0 0.1,0 0.1,0 0.1,0 0.1,-0.1 0.1,0 0.1,0 0.1,0 0.1,0 0.1,0 0.1,0 0.1,0 0.1,0 0.1,0 0.1,0 0.1,0 0.1,0 0.1,0 0.1,0 0.1,0 0.1,0 0.1,-0.1 0.1,0 0.1,0 0.1,0 0.1,0 0.1,0 0.1,0 0.1,0 0.1,0 0.1,0 0.1,0 0.1,0 0.1,0 0.1,0 0.1,-0.1 0.1,0 0.1,0 0.1,0 0.1,0 0.1,0 0.1,0 0.1,0 0.1,0 0.1,0 0.1,0 0.1,0 0.1,0 0.1,-0.1 0.1,0 0.1,0 0.1,0 0.1,0 0.1,0 0.1,0 0.1,0 0.1,0 0.1,0 0.1,0 0.1,0 0.1,0 0.1,0 0.1,-0.1 0.1,0 0.1,0 0.1,0 0.1,0 0.1,0 0.1,0 0.1,0 0.1,0 0.1,0 0.1,0 0.1,0 0.1,0 0.1,0 0.1,-0.1 0.1,0 0.1,0 0.1,0 0.1,0 0.1,0 0.1,0 0.1,0 0.1,0 0.1,0 0.1,0 0.1,0 0.1,0 0.1,0 0.1,-0.1 0.1,0 0.1,0 0.1,0 0.1,0 0.1,0 0.1,0 0.1,0 0.1,0 0.1,0 0.1,0 0.1,0 0.1,0 0.1,0 0.1,-0.1 0.1,0 0.1,0 0.1,0 0.1,0 0.1,0 0.1,0 0.1,0 0.1,0 0.1,0 0.1,0 0.1,0 0.1,0 0.1,0 0.1,-0.1 0.1,0 0.1,0 0.1,0 0.1,0 0.1,0 0.1,0 0.1,0 0.1,0 0.1,0 0.1,0 0.1,0 0.1,0 0.1,-0.1 0.1,0 0.1,0 0.1,0 0.1,0 0.1,0 0.1,0 0.1,0 0.1,0 0.1,0 0.1,0 0.1,0 0.1,0 0.1,0 0.1,-0.1 0.1,0 0.1,0 0.1,0 0.1,0 0.1,0 0.1,0 0.1,0 0.1,0 0.1,0 0.1,0 0.1,0 0.1,0 0.1,0 0.1,-0.1 0.1,0 0.1,0 0.1,0 0.1,0 0.1,0 0.1,0 0.1,0 0.1,0 0.1,0 0.1,0 0.1,0 0.1,0 0.1,0 0.1,-0.1 0.1,0 0.1,0 0.1,0 0.1,0 0.1,0 0.1,0 0.1,0 0.1,0 0.1,0 0.1,0 0.1,0 0.1,0 0.1,0 0.1,-0.1 0.1,0 0.1,0 0.1,0 0.1,0 0.1,0 0.1,0 0.1,0 0.1,0 0.1,0 0.1,0 0.1,0 0.1,0 0.1,-0.1 0.1,0 0.1,0 0.1,0 0.1,0 0.1,0 0.1,0 0.1,0 0.1,0 0.1,0 0.1,0 0.1,0 0.1,0 0.1,0 0.1,-0.1 0.1,0 0.1,0 0.1,0 0.1,0 0.1,0 0.1,0 0.1,0 0.1,0 0.1,0 0.1,0 0.1,0 0.1,0 0.1,0 0.1,-0.1 0.1,0 0.1,0 0.1,0 0.1,0 0.1,0 0.1,0 0.1,0 0.1,0 0.1,0 0.1,0 0.1,0 0.1,0 0.1,0 0.1,-0.1 0.1,0 0.1,0 0.1,0 0.1,0 0.1,0 0.1,0 0.1,0 0.1,0 0.1,0 0.1,0 0.1,0 0.1,0 0.1,0 0.1,-0.1 0.1,0 0.1,0 0.1,0 0.1,0 0.1,0 0.1,0 0.1,0 0.1,0 0.1,0 0.1,0 0.1,0 0.1,0 0.1,-0.1 0.1,0 0.1,0 0.1,0 0.1,0 0.1,0 0.1,0 0.1,0 0.1,0 0.1,0 0.1,0 0.1,0 0.1,-0.1 0.1,0 0.1,0 0.1,0 0.1,0 0.1,0 0.1,0 0.1,0 0.1,0 0.1,0 0.1,0 0.1,0 0.1,-0.1 0.1,0 0.1,0 0.1,0 0.1,0 0.1,0 0.1,0 0.1,0 0.1,0 0.1,0 0.1,0 0.1,0 0.1,-0.1 0.1,0 0.1,0 0.1,0 0.1,0 0.1,0 0.1,0 0.1,0 0.1,0 0.1,0 0.1,0 0.1,-0.1 0.1,0 0.1,0 0.1,0 0.1,0 0.1,0 0.1,0 0.1,0 0.1,0 0.1,0 0.1,0 0.1,0 0.1,-0.1 0.1,0 0.1,0 0.1,0 0.1,0 0.1,0 0.1,0 0.1,0 0.1,0 0.1,0 0.1,0 0.1,0 0.1,-0.1 0.1,0 0.1,0 0.1,0 0.1,0 0.1,0 0.1,0 0.1,0 0.1,0 0.1,0 0.1,0 0.1,0 0,-0.1 0.1,0 0.1,0 0.1,0 0.1,0 0.1,0 0.1,0 0.1,0 0.1,0 0.1,0 0.1,0 0.1,0 0.1,-0.1 0.1,0 0.1,0 0.1,0 0.1,0 0.1,0 0.1,0 0.1,0 0.1,0 0.1,0 0.1,0 0.1,0 0.1,-0.1 0.1,0 0.1,0 0.1,0 0.1,0 0.1,0 0.1,0 0.1,0 0.1,0 0.1,0 0.1,0 0.1,0 0.1,-0.1 0.1,0 0.1,0 0.1,0 0.1,0 0.1,0 0.1,0 0.1,0 0.1,0 0.1,0 0.1,0 0.1,-0.1 0.1,0 0.1,0 0.1,0 0.1,0 0.1,0 0.1,0 0.1,0 0.1,0 0.1,0 0.1,0 0.1,0 0.1,-0.1 0.1,0 0.1,0 0.1,0 0.1,0 0.1,0 0.1,0 0.1,0 0.1,0 0.1,0 0.1,0 0.1,0 0.1,-0.1 0.1,0 0.1,0 0.1,0 0.1,0 0.1,0 0.1,0 0.1,0 0.1,0 0.1,0 0.1,0 0.1,0 0.1,-0.1 0.1,0 0.1,0 0.1,0 0.1,0 0.1,0 0.1,0 0.1,0 0.1,0 0.1,0 0.1,0 0.1,0 0.1,-0.1 0.1,0 0.1,0 0.1,0 0.1,0 0.1,0 0.1,0 0.1,0 0.1,0 0.1,0 0.1,0 0.1,0 0.1,-0.1 0.1,0 0.1,0 0.1,0 0.1,0 0.1,0 0.1,0 0.1,0 0.1,0 0.1,0 0.1,0 0.1,-0.1 0.1,0 0.1,0 0.1,0 0.1,0 0.1,0 0.1,0 0.1,0 0.1,0 0.1,0 0.1,-0.1 0.1,0 0.1,0 0.1,0 0.1,0 0.1,0 0.1,0 0.1,0 0.1,0 0.1,0 0.1,-0.1 0.1,0 0.1,0 0.1,0 0.1,0 0.1,0 0.1,0 0.1,0 0.1,0 0.1,0 0.1,0 0.1,-0.1 0.1,0 0.1,0 0.1,0 0.1,0 0.1,0 0.1,0 0.1,0 0.1,0 0.1,0 0.1,-0.1 0.1,0 0.1,0 0.1,0 0.1,0 0.1,0 0.1,0 0.1,0 0.1,0 0.1,0 0.1,0 0.1,-0.1 0.1,0 0.1,0 0.1,0 0.1,0 0.1,0 0.1,0 0.1,0 0.1,0 0.1,0 0.1,-0.1 0.1,0 0.1,0 0.1,0 0.1,0 0.1,0 0.1,0 0.1,0 0.1,0 0.1,0 0.1,-0.1 0.1,0 0.1,0 0.1,0 0.1,0 0.1,0 0.1,0 0.1,0 0.1,0 0.1,0 0.1,0 0.1,-0.1 0.1,0 0.1,0 0.1,0 0.1,0 0.1,0 0.1,0 0.1,0 0.1,0 0.1,0 0.1,-0.1 0.1,0 0.1,0 0.1,0 0.1,0 0.1,0 0.1,0 0.1,0 0.1,0 0.1,0 0.1,-0.1 0.1,0 0.1,0 0.1,0 0.1,0 0.1,0 0.1,0 0.1,0 0.1,0 0.1,0 0.1,0 0.1,-0.1 0.1,0 0.1,0 0.1,0 0.1,0 0.1,0 0.1,0 0.1,0 0.1,0 0.1,0 0.1,-0.1 0.1,0 0.1,0 0.1,0 0.1,0 0.1,0 0.1,0 0.1,0 0.1,0 0.1,0 0.1,-0.1 0.1,0 0.1,0 0.1,0 0.1,0 0.1,0 0.1,0 0.1,0 0.1,0 0.1,0 0.1,0 0.1,-0.1 0.1,0 0.1,0 0.1,0 0.1,0 0.1,0 0.1,0 0.1,0 0.1,0 0.1,0 0.1,-0.1 0.1,0 0.1,0 0.1,0 0.1,0 0.1,0 0.1,0 0.1,0 0.1,0 0.1,0 0.1,-0.1 0.1,0 0.1,0 0.1,0 0.1,0 0.1,0 0.1,0 0.1,0 0.1,0 0.1,-0.1 0.1,0 0.1,0 0.1,0 0.1,0 0.1,0 0.1,0 0.1,0 0.1,0 0.1,-0.1 0.1,0 0.1,0 0.1,0 0.1,0 0.1,0 0.1,0 0.1,0 0.1,0 0.1,-0.1 0.1,0 0.1,0 0.1,0 0.1,0 0.1,0 0.1,0 0.1,0 0.1,0 0.1,0 0.1,-0.1 0.1,0 0.1,0 0.1,0 0.1,0 0.1,0 0.1,0 0.1,0 0.1,0 0.1,-0.1 0.1,0 0.1,0 0.1,0 0.1,0 0.1,0 0.1,0 0.1,0 0.1,-0.1 0.1,0 0.1,0 0.1,0 0.1,0 0.1,0 0.1,0 0.1,0 0.1,0 0.1,-0.1 0.1,0 0.1,0 0.1,0 0.1,0 0.1,0 0.1,0 0.1,0 0.1,0 0.1,-0.1 0.1,0 0.1,0 0.1,0 0.1,0 0.1,0 0.1,0 0.1,0 0.1,0 0.1,0 0.1,-0.1 0.1,0 0.1,0 0.1,0 0.1,0 0.1,0 0.1,0 0.1,0 0.1,0 0.1,-0.1 0.1,0 0.1,0 0.1,0 0.1,0 0.1,0 0.1,0 0.1,0 0.1,0 0.1,-0.1 0.1,0 0.1,0 0.1,0 0.1,0 0.1,0 0.1,0 0.1,0 0.1,0 0.1,-0.1 0.1,0 0.1,0 0.1,0 0.1,0 0.1,0 0.1,0 0.1,0 0.1,0 0.1,-0.1 0.1,0 0.1,0 0.1,0 0.1,0 0.1,0 0.1,0 0.1,0 0.1,0 0.1,-0.1 0.1,0 0.1,0 0.1,0 0.1,0 0.1,0 0.1,0 0.1,0 0.1,-0.1 0.1,0 0.1,0 0.1,0 0.1,0 0.1,0 0.1,0 0.1,0 0.1,0 0.1,-0.1 0.1,0 0.1,0 0.1,0 0.1,0 0.1,0 0.1,0 0.1,0 0.1,-0.1 0.1,0 0.1,0 0.1,0 0.1,0 0.1,0 0.1,0 0.1,0 0.1,-0.1 0.1,0 0.1,0 0.1,0 0.1,0 0.1,0 0.1,0 0.1,0 0.1,0 0.1,-0.1 0.1,0 0.1,0 0.1,0 0.1,0 0.1,0 0.1,0 0.1,0 0.1,-0.1 0.1,0 0.1,0 0.1,0 0.1,0 0.1,0 0.1,0 0.1,0 0.1,-0.1 0.1,0 0.1,0 0.1,0 0.1,0 0.1,0 0.1,0 0.1,0 0.1,-0.1 0.1,0 0.1,0 0.1,0 0.1,0 0.1,0 0.1,0 0.1,0 0.1,0 0.1,-0.1 0.1,0 0.1,0 0.1,0 0.1,0 0.1,0 0.1,0 0.1,0 0.1,-0.1 0.1,0 0.1,0 0.1,0 0.1,0 0.1,0 0.1,0 0.1,0 0.1,-0.1 0.1,0 0.1,0 0.1,0 0.1,0 0.1,0 0.1,0 0.1,0 0.1,0 0.1,-0.1 0.1,0 0.1,0 0.1,0 0.1,0 0.1,0 0.1,0 0.1,0 0.1,-0.1 0.1,0 0.1,0 0.1,0 0.1,0 0.1,0 0.1,0 0.1,0 0.1,-0.1 0.1,0 0.1,0 0.1,0 0.1,0 0.1,0 0.1,0 0.1,-0.1 0.1,0 0.1,0 0.1,0 0.1,0 0.1,0 0.1,0 0.1,0 0.1,-0.1 0.1,0 0.1,0 0.1,0 0.1,0 0.1,0 0.1,0 0.1,-0.1 0.1,0 0.1,0 0.1,0 0.1,0 0.1,0 0.1,0 0.1,0 0.1,-0.1 0.1,0 0.1,0 0.1,0 0.1,0 0.1,0 0.1,0 0.1,-0.1 0.1,0 0.1,0 0.1,0 0.1,0 0.1,0 0.1,0 0.1,0 0.1,-0.1 0.1,0 0.1,0 0.1,0 0.1,0 0.1,0 0.1,0 0.1,-0.1 0.1,0 0.1,0 0.1,0 0.1,0 0.1,0 0.1,0 0.1,0 0.1,-0.1 0.1,0 0.1,0 0.1,0 0.1,0 0.1,0 0.1,0 0.1,-0.1 0.1,0 0.1,0 0.1,0 0.1,0 0.1,0 0.1,0 0.1,0 0.1,-0.1 0.1,0 0.1,0 0.1,0 0.1,0 0.1,0 0.1,0 0.1,-0.1 0.1,0 0.1,0 0.1,0 0.1,0 0.1,0 0.1,0 0.1,0 0.1,-0.1 0.1,0 0.1,0 0.1,0 0.1,0 0.1,0 0.1,0 0.1,-0.1 0.1,0 0.1,0 0.1,0 0.1,0 0.1,0 0.1,0 0.1,0 0.1,-0.1 0.1,0 0.1,0 0.1,0 0.1,0 0.1,0 0.1,0 0.1,-0.1 0.1,0 0.1,0 0.1,0 0.1,0 0.1,0 0.1,0 0.1,-0.1 0.1,0 0.1,0 0.1,0 0.1,0 0.1,0 0.1,0 0.1,-0.1 0.1,0 0.1,0 0.1,0 0.1,0 0.1,0 0.1,0 0.1,-0.1 0.1,0 0.1,0 0.1,0 0.1,0 0.1,0 0.1,-0.1 0.1,0 0.1,0 0.1,0 0.1,0 0.1,0 0.1,0 0.1,-0.1 0.1,0 0.1,0 0.1,0 0.1,0 0.1,0 0.1,0 0.1,-0.1 0.1,0 0.1,0 0.1,0 0.1,0 0.1,0 0.1,0 0.1,-0.1 0.1,0 0.1,0 0.1,0 0.1,0 0.1,0 0.1,0 0.1,-0.1 0.1,0 0.1,0 0.1,0 0.1,0 0.1,0 0.1,-0.1 0.1,0 0.1,0 0.1,0 0.1,0 0.1,0 0.1,0 0.1,-0.1 0.1,0 0.1,0 0.1,0 0.1,0 0.1,0 0.1,0 0.1,-0.1 0.1,0 0.1,0 0.1,0 0.1,0 0.1,0 0.1,0 0.1,-0.1 0.1,0 0.1,0 0.1,0 0.1,0 0.1,0 0.1,0 0.1,-0.1 0.1,0 0.1,0 0.1,0 0.1,0 0.1,0 0.1,0 0.1,-0.1 0.1,0 0.1,0 0.1,0 0.1,0 0.1,0 0.1,-0.1 0.1,0 0.1,0 0.1,0 0.1,0 0.1,0 0.1,-0.1 0.1,0 0.1,0 0.1,0 0.1,0 0.1,0 0.1,0 0.1,-0.1 0.1,0 0.1,0 0.1,0 0.1,0 0.1,0 0.1,-0.1 0.1,0 0.1,0 0.1,0 0.1,0 0.1,0 0.1,-0.1 0.1,0 0.1,0 0.1,0 0.1,0 0.1,0 0.1,0 0.1,-0.1 0.1,0 0.1,0 0.1,0 0.1,0 0.1,0 0.1,-0.1 0.1,0 0.1,0 0.1,0 0.1,0 0.1,0 0.1,0 0.1,-0.1 0.1,0 0.1,0 0.1,0 0.1,0 0.1,0 0.1,-0.1 0.1,0 0.1,0 0.1,0 0.1,0 0.1,0 0.1,-0.1 0.1,0 0.1,0 0.1,0 0.1,0 0.1,0 0.1,-0.1 0.1,0 0.1,0 0.1,0 0.1,0 0.1,0 0.1,-0.1 0.1,0 0.1,0 0.1,0 0.1,0 0.1,0 0.1,-0.1 0.1,0 0.1,0 0.1,0 0.1,0 0.1,0 0.1,-0.1 0.1,0 0.1,0 0.1,0 0.1,0 0.1,0 0.1,-0.1 0.1,0 0.1,0 0.1,0 0.1,0 0.1,0 0.1,-0.1 0.1,0 0.1,0 0.1,0 0.1,0 0.1,0 0.1,-0.1 0.1,0 0.1,0 0.1,0 0.1,0 0.1,0 0.1,-0.1 0.1,0 0.1,0 0.1,0 0.1,0 0.1,-0.1 0.1,0 0.1,0 0.1,0 0.1,0 0.1,0 0.1,-0.1 0.1,0 0.1,0 0.1,0 0.1,0 0.1,0 0.1,-0.1 0.1,0 0.1,0 0.1,0 0.1,0 0.1,0 0.1,-0.1 0.1,0 0.1,0 0.1,0 0.1,0 0.1,0 0.1,-0.1 0.1,0 0.1,0 0.1,0 0.1,0 0.1,0 0.1,-0.1 0.1,0 0.1,0 0.1,0 0.1,0 0.1,0 0.1,-0.1 0.1,0 0.1,0 0.1,0 0.1,0 0.1,-0.1 0.1,0 0.1,0 0.1,0 0.1,0 0.1,0 0.1,-0.1 0.1,0 0.1,0 0.1,0 0.1,0 0.1,-0.1 0.1,0 0.1,0 0.1,0 0.1,0 0.1,0 0.1,-0.1 0.1,0 0.1,0 0.1,0 0.1,0 0.1,-0.1 0.1,0 0.1,0 0.1,0 0.1,0 0.1,0 0.1,-0.1 0.1,0 0.1,0 0.1,0 0.1,0 0.1,-0.1 0.1,0 0.1,0 0.1,0 0.1,0 0.1,0 0.1,-0.1 0.1,0 0.1,0 0.1,0 0.1,0 0.1,-0.1 0.1,0 0.1,0 0.1,0 0.1,0 0.1,-0.1 0.1,0 0.1,0 0.1,0 0.1,0 0.1,0 0.1,-0.1 0.1,0 0.1,0 0.1,0 0.1,0 0.1,-0.1 0.1,0 0.1,0 0.1,0 0.1,0 0.1,-0.1 0.1,0 0.1,0 0.1,0 0.1,0 0.1,-0.1 0.1,0 0.1,0 0.1,0 0.1,0 0.1,-0.1 0.1,0 0.1,0 0.1,0 0.1,0 0.1,0 0.1,-0.1 0.1,0 0.1,0 0.1,0 0.1,0 0.1,-0.1 0.1,0 0.1,0 0.1,0 0.1,0 0.1,-0.1 0.1,0 0.1,0 0.1,0 0.1,0 0.1,-0.1 0.1,0 0.1,0 0.1,0 0.1,-0.1 0.1,0 0.1,0 0.1,0 0.1,0 0.1,-0.1 0.1,0 0.1,0 0.1,0 0.1,0 0.1,0 0.1,-0.1 0.1,0 0.1,0 0.1,0 0.1,0 0.1,-0.1 0.1,0 0.1,0 0.1,0 0.1,0 0.1,-0.1 0.1,0 0.1,0 0.1,0 0.1,-0.1 0.1,0 0.1,0 0.1,0 0.1,0 0.1,-0.1 0.1,0 0.1,0 0.1,0 0.1,0 0.1,-0.1 0.1,0 0.1,0 0.1,0 0.1,0 0.1,-0.1 0.1,0 0.1,0 0.1,0 0.1,0 0.1,-0.1 0.1,0 0.1,0 0.1,0 0.1,0 0.1,-0.1 0.1,0 0.1,0 0.1,0 0.1,0 0.1,-0.1 0.1,0 0.1,0 0.1,0 0.1,0 0.1,-0.1 0.1,0 0.1,0 0.1,0 0.1,-0.1 0.1,0 0.1,0 0.1,0 0.1,0 0.1,-0.1 0.1,0 0.1,0 0.1,0 0.1,0 0.1,-0.1 0.1,0 0.1,0 0.1,0 0.1,0 0.1,-0.1 0.1,0 0.1,0 0.1,0 0.1,-0.1 0.1,0 0.1,0 0.1,0 0.1,0 0.1,-0.1 0.1,0 0.1,0 0.1,0 0.1,0 0.1,-0.1 0.1,0 0.1,0 0.1,0 0.1,-0.1 0.1,0 0.1,0 0.1,0 0.1,0 0.1,-0.1 0.1,0 0.1,0 0.1,0 0.1,0 0.1,-0.1 0.1,0 0.1,0 0.1,0 0.1,-0.1 0.1,0 0.1,0 0.1,0 0.1,0 0.1,-0.1 0.1,0 0.1,0 0.1,0 0.1,-0.1 0.1,0 0.1,0 0.1,0 0.1,0 0.1,-0.1 0.1,0 0.1,0 0.1,0 0.1,-0.1 0.1,0 0.1,0 0.1,0 0.1,0 0.1,-0.1 0.1,0 0.1,0 0.1,0 0.1,-0.1 0.1,0 0.1,0 0.1,0 0.1,-0.1 0.1,0 0.1,0 0.1,0 0.1,0 0.1,-0.1 0.1,0 0.1,0 0.1,0 0.1,-0.1 0.1,0 0.1,0 0.1,0 0.1,0 0.1,-0.1 0.1,0 0.1,0 0.1,0 0.1,-0.1 0.1,0 0.1,0 0.1,0 0.1,-0.1 0.1,0 0.1,0 0.1,0 0.1,0 0.1,-0.1 0.1,0 0.1,0 0.1,0 0.1,-0.1 0.1,0 0.1,0 0.1,0 0.1,-0.1 0.1,0 0.1,0 0.1,0 0.1,-0.1 0.1,0 0.1,0 0.1,0 0.1,-0.1 0.1,0 0.1,0 0.1,0 0.1,-0.1 0.1,0 0.1,0 0.1,0 0.1,0 0.1,-0.1 0.1,0 0.1,0 0.1,0 0.1,-0.1 0.1,0 0.1,0 0.1,0 0.1,-0.1 0.1,0 0.1,0 0.1,0 0.1,-0.1 0.1,0 0.1,0 0.1,0 0.1,-0.1 0.1,0 0.1,0 0.1,0 0.1,-0.1 0.1,0 0.1,0 0.1,0 0.1,-0.1 0.1,0 0.1,0 0.1,0 0.1,-0.1 0.1,0 0.1,0 0.1,0 0.1,-0.1 0.1,0 0.1,0 0.1,0 0.1,-0.1 0.1,0 0.1,0 0.1,0 0.1,-0.1 0.1,0 0.1,0 0.1,0 0.1,-0.1 0.1,0 0.1,0 0.1,0 0.1,-0.1 0.1,0 0.1,0 0.1,0 0.1,-0.1 0.1,0 0.1,0 0.1,0 0.1,-0.1 0.1,0 0.1,0 0.1,0 0.1,-0.1 0.1,0 0.1,0 0.1,0 0.1,-0.1 0.1,0 0.1,0 0.1,0 0.1,-0.1 0.1,0 0.1,0 0.1,0 0.1,-0.1 0.1,0 0.1,0 0.1,0 0.1,-0.1 0.1,0 0.1,0 0.1,0 0.1,-0.1 0.1,0 0.1,0 0.1,-0.1 0.1,0 0.1,0 0.1,0 0.1,-0.1 0.1,0 0.1,0 0.1,0 0.1,-0.1 0.1,0 0.1,0 0.1,0 0.1,-0.1 0.1,0 0.1,0 0.1,-0.1 0.1,0 0.1,0 0.1,0 0.1,-0.1 0.1,0 0.1,0 0.1,0 0.1,-0.1 0.1,0 0.1,0 0.1,0 0.1,-0.1 0.1,0 0.1,0 0.1,-0.1 0.1,0 0.1,0 0.1,0 0.1,-0.1 0.1,0 0.1,0 0.1,0 0.1,-0.1 0.1,0 0.1,0 0.1,0 0.1,-0.1 0.1,0 0.1,0 0.1,-0.1 0.1,0 0.1,0 0.1,0 0.1,-0.1 0.1,0 0.1,-0.1 0.1,0 0.1,0 0.1,0 0.1,-0.1 0.1,0 0.1,0 0.1,0 0.1,-0.1 0.1,0 0.1,0 0.1,-0.1 0.1,0 0.1,0 0.1,0 0.1,-0.1 0.1,0 0.1,0 0.1,-0.1 0.1,0 0.1,0 0.1,0 0.1,-0.1 0.1,0 0.1,0 0.1,0 0.1,-0.1 0.1,0 0.1,0 0.1,-0.1 0.1,0 0.1,0 0.1,-0.1 0.1,0 0.1,0 0.1,0 0.1,-0.1 0.1,0 0.1,0 0.1,-0.1 0.1,0 0.1,0 0.1,0 0.1,-0.1 0.1,0 0.1,0 0.1,-0.1 0.1,0 0.1,0 0.1,0 0.1,-0.1 0.1,0 0.1,0 0.1,-0.1 0.1,0 0.1,0 0.1,0 0.1,-0.1 0.1,0 0.1,0 0.1,-0.1 0.1,0 0.1,0 0.1,0 0.1,-0.1 0.1,0 0.1,0 0.1,-0.1 0.1,0 0.1,0 0.1,-0.1 0.1,0 0.1,0 0.1,0 0.1,-0.1 0.1,0 0.1,0 0.1,-0.1 0.1,0 0.1,0 0.1,-0.1 0.1,0 0.1,0 0.1,0 0.1,-0.1 0.1,0 0.1,0 0.1,-0.1 0.1,0 0.1,0 0.1,-0.1 0.1,0 0.1,0 0.1,0 0.1,-0.1 0.1,0 0.1,0 0.1,-0.1 0.1,0 0.1,0 0.1,-0.1 0.1,0 0.1,0 0.1,0 0.1,-0.1 0.1,0 0.1,0 0.1,-0.1 0.1,0 0.1,0 0.1,-0.1 0.1,0 0.1,0 0.1,-0.1 0.1,0 0.1,0 0.1,-0.1 0.1,0 0.1,0 0.1,-0.1 0.1,0 0.1,0 0.1,0 0.1,-0.1 0.1,0 0.1,0 0.1,-0.1 0.1,0 0.1,0 0.1,-0.1 0.1,0 0.1,0 0.1,-0.1 0.1,0 0.1,0 0.1,-0.1 0.1,0 0.1,0 0.1,-0.1 0.1,0 0.1,0 0.1,-0.1 0.1,0 0.1,0 0.1,-0.1 0.1,0 0.1,0 0.1,-0.1 0.1,0 0.1,0 0.1,-0.1 0.1,0 0.1,0 0.1,-0.1 0.1,0 0.1,0 0.1,-0.1 0.1,0 0.1,0 0.1,-0.1 0.1,0 0.1,0 0.1,-0.1 0.1,0 0.1,0 0.1,-0.1 0.1,0 0.1,0 0.1,-0.1 0.1,0 0.1,0 0.1,-0.1 0.1,0 0.1,0 0.1,-0.1 0.1,0 0.1,0 0.1,-0.1 0.1,0 0.1,0 0.1,-0.1 0.1,0 0.1,0 0.1,-0.1 0.1,0 0.1,0 0.1,-0.1 0.1,0 0.1,0 0.1,-0.1 0.1,0 0.1,0 0.1,-0.1 0.1,0 0.1,0 0.1,-0.1 0.1,0 0.1,0 0.1,-0.1 0.1,0 0.1,0 0.1,-0.1 0.1,0 0.1,-0.1 0.1,0 0.1,0 0.1,-0.1 0.1,0 0.1,0 0.1,-0.1 0.1,0 0.1,0 0.1,-0.1 0.1,0 0.1,-0.1 0.1,0 0.1,0 0.1,-0.1 0.1,0 0.1,0 0.1,-0.1 0.1,0 0.1,0 0.1,-0.1 0.1,0 0.1,0 0.1,-0.1 0.1,0 0.1,-0.1 0.1,0 0.1,0 0.1,-0.1 0.1,0 0.1,0 0.1,-0.1 0.1,0 0.1,0 0.1,-0.1 0.1,0 0.1,-0.1 0.1,0 0.1,0 0.1,-0.1 0.1,0 0.1,0 0.1,-0.1 0.1,0 0.1,-0.1 0.1,0 0.1,0 0.1,-0.1 0.1,0 0.1,0 0.1,-0.1 0.1,0 0.1,-0.1 0.1,0 0.1,0 0.1,-0.1 0.1,0 0.1,0 0.1,-0.1 0.1,0 0.1,-0.1 0.1,0 0.1,0 0.1,-0.1 0.1,0 0.1,-0.1 0.1,0 0.1,0 0.1,-0.1 0.1,0 0.1,0 0.1,-0.1 0.1,0 0.1,-0.1 0.1,0 0.1,0 0.1,-0.1 0.1,0 0.1,-0.1 0.1,0 0.1,0 0.1,-0.1 0.1,0 0.1,0 0.1,-0.1 0.1,0 0.1,-0.1 0.1,0 0.1,0 0.1,-0.1 0.1,0 0.1,-0.1 0.1,0 0.1,0 0.1,-0.1 0.1,0 0.1,-0.1 0.1,0 0.1,0 0.1,-0.1 0.1,0 0.1,-0.1 0.1,0 0.1,0 0.1,-0.1 0.1,0 0.1,-0.1 0.1,0 0.1,0 0.1,-0.1 0.1,0 0.1,-0.1 0.1,0 0.1,0 0.1,-0.1 0.1,0 0.1,-0.1 0.1,0 0.1,-0.1 0.1,0 0.1,0 0.1,-0.1 0.1,0 0.1,-0.1 0.1,0 0.1,0 0,-0.1 0.1,0 0.1,-0.1 0.1,0 0.1,-0.1 0.1,0 0.1,0 0.1,-0.1 0.1,0 0.1,-0.1 0.1,0 0.1,0 0.1,-0.1 0.1,0 0.1,-0.1 0.1,0 0.1,-0.1 0.1,0 0.1,-0.1 0.1,0 0.1,0 0.1,-0.1 0.1,0 0.1,-0.1 0.1,0 0.1,-0.1 0.1,0 0.1,0 0.1,-0.1 0.1,0 0.1,-0.1 0.1,0 0.1,-0.1 0.1,0 0.1,-0.1 0.1,0 0.1,0 0.1,-0.1 0.1,0 0.1,-0.1 0.1,0 0.1,-0.1 0.1,0 0.1,-0.1 0.1,0 0.1,0 0.1,-0.1 0.1,0 0.1,-0.1 0.1,0 0.1,-0.1 0.1,0 0.1,-0.1 0.1,0 0.1,-0.1 0.1,0 0.1,-0.1 0.1,0 0.1,0 0.1,-0.1 0.1,0 0.1,-0.1 0.1,0 0.1,-0.1 0.1,0 0.1,-0.1 0.1,0 0.1,-0.1 0.1,0 0.1,-0.1 0.1,0 0.1,-0.1 0.1,0 0.1,-0.1 0.1,0 0.1,0 0.1,-0.1 0.1,0 0.1,-0.1 0.1,0 0.1,-0.1 0.1,0 0.1,-0.1 0.1,0 0.1,-0.1 0.1,0 0.1,-0.1 0.1,0 0.1,-0.1 0.1,0 0.1,-0.1 0.1,0 0.1,-0.1 0.1,0 0.1,-0.1 0.1,0 0.1,-0.1 0.1,0 0.1,-0.1 0.1,0 0.1,-0.1 0.1,0 0.1,-0.1 0.1,0 0.1,-0.1 0.1,0 0.1,-0.1 0.1,0 0.1,-0.1 0.1,0 0.1,-0.1 0.1,0 0.1,-0.1 0.1,0 0.1,-0.1 0.1,0 0.1,-0.1 0.1,0 0.1,-0.1 0.1,0 0.1,-0.1 0.1,0 0.1,-0.1 0.1,0 0.1,-0.1 0.1,0 0.1,-0.1 0.1,0 0.1,-0.1 0.1,0 0.1,-0.1 0.1,0 0.1,-0.1 0.1,0 0.1,-0.1 0.1,0 0.1,-0.1 0.1,-0.1 0.1,0 0.1,-0.1 0.1,0 0.1,-0.1 0.1,0 0.1,-0.1 0.1,0 0.1,-0.1 0.1,0 0.1,-0.1 0.1,0 0.1,-0.1 0.1,0 0.1,-0.1 0.1,0 0.1,-0.1 0.1,-0.1 0.1,0 0.1,-0.1 0.1,0 0.1,-0.1 0.1,0 0.1,-0.1 0.1,0 0.1,-0.1 0.1,0 0.1,-0.1 0.1,-0.1 0.1,0 0.1,-0.1 0.1,0 0.1,-0.1 0.1,0 0.1,-0.1 0.1,0 0.1,-0.1 0.1,-0.1 0.1,0 0.1,-0.1 0.1,0 0.1,-0.1 0.1,0 0.1,-0.1 0.1,0 0.1,-0.1 0.1,-0.1 0.1,0 0.1,-0.1 0.1,0 0.1,-0.1 0.1,0 0.1,-0.1 0.1,-0.1 0.1,0 0.1,-0.1 0.1,0 0.1,-0.1 0.1,-0.1 0.1,0 0.1,-0.1 0.1,0 0.1,-0.1 0.1,0 0.1,-0.1 0.1,-0.1 0.1,0 0.1,-0.1 0.1,0 0.1,-0.1 0.1,0 0.1,-0.1 0.1,-0.1 0.1,0 0.1,-0.1 0.1,0 0.1,-0.1 0.1,-0.1 0.1,0 0.1,-0.1 0.1,0 0.1,-0.1 0.1,-0.1 0.1,0 0.1,-0.1 0.1,0 0.1,-0.1 0.1,-0.1 0.1,0 0.1,-0.1 0.1,0 0.1,-0.1 0.1,-0.1 0.1,0 0.1,-0.1 0.1,0 0.1,-0.1 0.1,-0.1 0.1,0 0.1,-0.1 0.1,0 0.1,-0.1 0.1,-0.1 0.1,0 0.1,-0.1 0.1,-0.1 0.1,0 0.1,-0.1 0.1,0 0.1,-0.1 0.1,-0.1 0.1,0 0.1,-0.1 0.1,0 0.1,-0.1 0.1,-0.1 0.1,0 0.1,-0.1 0.1,-0.1 0.1,0 0.1,-0.1 0.1,0 0.1,-0.1 0.1,-0.1 0.1,0 0.1,-0.1 0.1,-0.1 0.1,0 0.1,-0.1 0.1,-0.1 0.1,0 0.1,-0.1 0.1,0 0.1,-0.1 0.1,-0.1 0.1,0 0.1,-0.1 0.1,-0.1 0.1,0 0.1,-0.1 0.1,-0.1 0.1,0 0.1,-0.1 0.1,-0.1 0.1,0 0.1,-0.1 0.1,-0.1 0.1,0 0.1,-0.1 0.1,0 0.1,-0.1 0.1,-0.1 0.1,0 0.1,-0.1 0.1,-0.1 0.1,0 0.1,-0.1 0.1,-0.1 0.1,0 0.1,-0.1 0.1,-0.1 0.1,0 0.1,-0.1 0.1,-0.1 0.1,0 0.1,-0.1 0.1,-0.1 0.1,-0.1 0.1,0 0.1,-0.1 0.1,-0.1 0.1,0 0.1,-0.1 0.1,-0.1 0.1,0 0.1,-0.1 0.1,-0.1 0.1,0 0.1,-0.1 0.1,-0.1 0.1,0 0.1,-0.1 0.1,-0.1 0.1,0 0.1,-0.1 0.1,-0.1 0.1,-0.1 0.1,0 0.1,-0.1 0.1,-0.1 0.1,0 0.1,-0.1 0.1,-0.1 0.1,0 0,-0.1 0.1,-0.1 0.1,-0.1 0.1,0 0.1,-0.1 0.1,-0.1 0.1,-0.1 0.1,0 0.1,-0.1 0.1,-0.1 0.1,0 0.1,-0.1 0.1,-0.1 0.1,-0.1 0.1,0 0.1,-0.1 0.1,-0.1 0.1,-0.1 0.1,0 0.1,-0.1 0.1,-0.1 0.1,-0.1 0.1,0 0.1,-0.1 0.1,-0.1 0.1,-0.1 0.1,0 0.1,-0.1 0.1,-0.1 0.1,-0.1 0.1,0 0.1,-0.1 0.1,-0.1 0.1,-0.1 0.1,0 0.1,-0.1 0.1,-0.1 0.1,-0.1 0.1,0 0.1,-0.1 0.1,-0.1 0.1,-0.1 0.1,-0.1 0.1,0 0.1,-0.1 0.1,-0.1 0.1,-0.1 0.1,0 0.1,-0.1 0.1,-0.1 0.1,-0.1 0.1,-0.1 0.1,0 0.1,-0.1 0.1,-0.1 0.1,-0.1 0.1,-0.1 0.1,0 0.1,-0.1 0.1,-0.1 0.1,-0.1 0.1,-0.1 0.1,0 0.1,-0.1 0.1,-0.1 0.1,-0.1 0.1,-0.1 0.1,-0.1 0.1,0 0.1,-0.1 0.1,-0.1 0.1,-0.1 0.1,-0.1 0.1,0 0.1,-0.1 0.1,-0.1 0.1,-0.1 0.1,-0.1 0.1,-0.1 0.1,-0.1 0.1,0 0.1,-0.1 0.1,-0.1 0.1,-0.1 0.1,-0.1 0.1,-0.1 0.1,-0.1 0.1,0 0.1,-0.1 0.1,-0.1 0.1,-0.1 0.1,-0.1 0.1,-0.1 0.1,-0.1 0.1,0 0.1,-0.1 0.1,-0.1 0.1,-0.1 0.1,-0.1 0.1,-0.1 0.1,-0.1 0.1,-0.1 0.1,0 0.1,-0.1 0.1,-0.1 0.1,-0.1 0.1,-0.1 0.1,-0.1 0.1,-0.1 0.1,-0.1 0.1,-0.1 0.1,0 0.1,-0.1 0.1,-0.1 0.1,-0.1 0.1,-0.1 0.1,-0.1 0.1,-0.1 0.1,-0.1 0.1,-0.1 0.1,-0.1 0.1,-0.1 0.1,-0.1 0.1,-0.1 0.1,0 0.1,-0.1 0.1,-0.1 0.1,-0.1 0.1,-0.1 0.1,-0.1 0.1,-0.1 0.1,-0.1 0.1,-0.1 0.1,-0.1 0.1,-0.1 0.1,-0.1 0.1,-0.1 0.1,-0.1 0.1,-0.1 0.1,-0.1 0.1,-0.1 0.1,-0.1 0.1,0 0.1,-0.1 0.1,-0.1 0.1,-0.1 0.1,-0.1 0.1,-0.1 0.1,-0.1 0.1,-0.1 0.1,-0.1 0.1,-0.1 0.1,-0.1 0.1,-0.1 0.1,-0.1 0.1,-0.1 0.1,-0.1 0.1,-0.1 0.1,-0.1 0.1,-0.1 0.1,-0.1 0.1,-0.1 0.1,-0.1 0.1,-0.1 0.1,-0.1 0.1,-0.1 0.1,-0.1 0.1,-0.1 0.1,-0.1 0.1,-0.1 0.1,-0.1 0.1,-0.1 0.1,-0.1 0.1,-0.1 0.1,-0.2 0.1,-0.1 0.1,-0.1 0.1,-0.1 0.1,-0.1 0.1,-0.1 0.1,-0.1 0.1,-0.1 0.1,-0.1 0.1,-0.1 0.1,-0.1 0.1,-0.1 0.1,-0.1 0.1,-0.1 0.1,-0.1 0.1,-0.1 0.1,-0.1 0.1,-0.1 0.1,-0.1 0.1,-0.1 0.1,-0.2 0.1,-0.1 0.1,-0.1 0.1,-0.1 0.1,-0.1 0.1,-0.1 0.1,-0.1 0.1,-0.1 0.1,-0.1 0.1,-0.1 0.1,-0.2 0.1,-0.1 0.1,-0.1 0.1,-0.1 0.1,-0.1 0.1,-0.1 0.1,-0.1 0.1,-0.1 0.1,-0.2 0.1,-0.1 0.1,-0.1 0.1,-0.1 0.1,-0.1 0.1,-0.1 0.1,-0.1 0.1,-0.2 0.1,-0.1 0.1,-0.1 0.1,-0.1 0.1,-0.1 0.1,-0.1 0.1,-0.1 0.1,-0.2 0.1,-0.1 0.1,-0.1 0.1,-0.1 0.1,-0.1 0.1,-0.1 0.1,-0.2 0.1,-0.1 0.1,-0.1 0.1,-0.1 0.1,-0.1 0.1,-0.2 0.1,-0.1 0.1,-0.1 0.1,-0.1 0.1,-0.1 0.1,-0.2 0.1,-0.1 0.1,-0.1 0.1,-0.1 0.1,-0.1 0.1,-0.2 0.1,-0.1 0.1,-0.1 0.1,-0.1 0.1,-0.1 0.1,-0.2 0.1,-0.1 0.1,-0.1 0.1,-0.1 0.1,-0.2 0.1,-0.1 0.1,-0.1 0.1,-0.1 0.1,-0.2 0.1,-0.1 0.1,-0.1 0.1,-0.1 0.1,-0.2 0.1,-0.1 0.1,-0.1 0.1,-0.1 0.1,-0.2 0.1,-0.1 0.1,-0.1 0.1,-0.1 0.1,-0.2 0.1,-0.1 0.1,-0.1 0.1,-0.2 0.1,-0.1 0.1,-0.1 0.1,-0.1 0.1,-0.2 0.1,-0.1 0.1,-0.1 0.1,-0.2 0.1,-0.1 0.1,-0.1 0.1,-0.2 0.1,-0.1 0.1,-0.1 0.1,-0.2 0.1,-0.1 0.1,-0.1 0.1,-0.2 0.1,-0.1 0.1,-0.1 0.1,-0.2 0.1,-0.1 0.1,-0.2 0.1,-0.1 0.1,-0.1 0.1,-0.2 0.1,-0.1 0.1,-0.1 0.1,-0.2 0.1,-0.1 0.1,-0.2 0.1,-0.1 0.1,-0.1 0.1,-0.2 0.1,-0.1 0.1,-0.2 0.1,-0.1 0.1,-0.2 0.1,-0.1 0.1,-0.1 0.1,-0.2 0.1,-0.1 0.1,-0.2 0.1,-0.1 0.1,-0.2 0.1,-0.1 0.1,-0.2 0.1,-0.1 0.1,-0.1 0.1,-0.2 0.1,-0.1 0.1,-0.2 0.1,-0.1 0.1,-0.2 0.1,-0.2 0.1,-0.1 0,-0.2 0.1,-0.1 0.1,-0.2 0.1,-0.1 0.1,-0.2 0.1,-0.1 0.1,-0.2 0.1,-0.1 0.1,-0.2 0.1,-0.1 0.1,-0.2 0.1,-0.2 0.1,-0.1 0.1,-0.2 0.1,-0.1 0.1,-0.2 0.1,-0.2 0.1,-0.1 0.1,-0.2 0.1,-0.1 0.1,-0.2 0.1,-0.2 0.1,-0.1 0.1,-0.2 0.1,-0.2 0.1,-0.1 0.1,-0.2 0.1,-0.2 0.1,-0.1 0.1,-0.2 0.1,-0.2 0.1,-0.1 0.1,-0.2 0.1,-0.2 0.1,-0.1 0.1,-0.2 0.1,-0.2 0.1,-0.1 0.1,-0.2 0.1,-0.2 0.1,-0.1 0.1,-0.2 0.1,-0.2 0.1,-0.2 0.1,-0.1 0.1,-0.2 0.1,-0.2 0.1,-0.2 0.1,-0.1 0.1,-0.2 0.1,-0.2 0.1,-0.2 0.1,-0.1 0.1,-0.2 0.1,-0.2 0.1,-0.2 0.1,-0.1 0.1,-0.2 0.1,-0.2 0.1,-0.2 0.1,-0.2 0.1,-0.1 0.1,-0.2 0.1,-0.2 0.1,-0.2 0.1,-0.2 0.1,-0.1 0.1,-0.2 0.1,-0.2 0.1,-0.2 0.1,-0.2 0.1,-0.2 0.1,-0.1 0.1,-0.2 0.1,-0.2 0.1,-0.2 0.1,-0.2 0.1,-0.2 0.1,-0.2 0.1,-0.2 0.1,-0.1 0.1,-0.2 0.1,-0.2 0.1,-0.2 0.1,-0.2 0.1,-0.2 0.1,-0.2 0.1,-0.2 0.1,-0.2 0.1,-0.2 0.1,-0.2 0.1,-0.2 0.1,-0.2 0.1,-0.2 0.1,-0.2 0.1,-0.2 0.1,-0.2 0.1,-0.2 0.1,-0.2 0.1,-0.2 0.1,-0.2 0.1,-0.2 0.1,-0.2 0.1,-0.2 0.1,-0.2 0.1,-0.2 0.1,-0.2 0.1,-0.2 0.1,-0.2 0.1,-0.2 0.1,-0.3 0.1,-0.2 0.1,-0.2 0.1,-0.2 0.1,-0.2 0.1,-0.2 0.1,-0.2 0.1,-0.2 0.1,-0.3 0.1,-0.2 0.1,-0.2 0.1,-0.2 0.1,-0.2 0.1,-0.2 0.1,-0.2 0.1,-0.3 0.1,-0.2 0.1,-0.2 0.1,-0.2 0.1,-0.2 0.1,-0.3 0.1,-0.2 0.1,-0.2 0.1,-0.2 0.1,-0.2 0.1,-0.3 0.1,-0.2 0.1,-0.2 0.1,-0.2 0.1,-0.3 0.1,-0.2 0.1,-0.2 0.1,-0.3 0.1,-0.2 0.1,-0.2 0.1,-0.2 0.1,-0.3 0.1,-0.2 0.1,-0.2 0.1,-0.3 0.1,-0.2 0.1,-0.2 0.1,-0.3 0.1,-0.2 0.1,-0.2 0.1,-0.3 0.1,-0.2 0.1,-0.3 0.1,-0.2 0.1,-0.2 0.1,-0.3 0.1,-0.2 0.1,-0.3 0.1,-0.2 0.1,-0.3 0.1,-0.2 0.1,-0.3 0.1,-0.2 0.1,-0.2 0.1,-0.3 0.1,-0.2 0.1,-0.3 0.1,-0.2 0.1,-0.3 0.1,-0.3 0.1,-0.2 0.1,-0.3 0.1,-0.2 0.1,-0.3 0.1,-0.2 0.1,-0.3 0.1,-0.3 0.1,-0.2 0.1,-0.3 0.1,-0.2 0.1,-0.3 0.1,-0.3 0.1,-0.2 0.1,-0.3 0.1,-0.3 0.1,-0.2 0.1,-0.3 0.1,-0.3 0.1,-0.3 0.1,-0.2 0.1,-0.3 0.1,-0.3 0.1,-0.3 0.1,-0.2 0.1,-0.3 0.1,-0.3 0.1,-0.3 0.1,-0.3 0.1,-0.2 0.1,-0.3 0.1,-0.3 0.1,-0.3 0.1,-0.3 0.1,-0.3 0.1,-0.3 0.1,-0.2 0.1,-0.3 0.1,-0.3 0.1,-0.3 0.1,-0.3 0.1,-0.3 0.1,-0.3 0.1,-0.3 0.1,-0.3 0.1,-0.3 0.1,-0.3 0.1,-0.3 0.1,-0.3 0.1,-0.3 0.1,-0.3 0.1,-0.3 0.1,-0.4 0.1,-0.3 0.1,-0.3 0.1,-0.3 0.1,-0.3 0.1,-0.4 0.1,-0.3 0.1,-0.3 0.1,-0.3 0.1,-0.4 0.1,-0.3 0.1,-0.3 0.1,-0.4 0.1,-0.3 0.1,-0.3 0.1,-0.4 0.1,-0.3 0.1,-0.3 0.1,-0.4 0.1,-0.3 0.1,-0.4 0.1,-0.3 0.1,-0.3 0.1,-0.4 0.1,-0.3 0.1,-0.4 0.1,-0.3 0.1,-0.4 0.1,-0.3 0.1,-0.4 0.1,-0.3 0.1,-0.4 0.1,-0.3 0.1,-0.4 0.1,-0.4 0.1,-0.3 0.1,-0.4 0.1,-0.3 0.1,-0.4 0.1,-0.4 0.1,-0.4 0.1,-0.3 0.1,-0.4 0.1,-0.4 0.1,-0.4 0.1,-0.3 0.1,-0.4 0.1,-0.4 0.1,-0.4 0.1,-0.3 0.1,-0.4 0.1,-0.4 0.1,-0.4 0.1,-0.4 0.1,-0.4 0.1,-0.4 0.1,-0.4 0.1,-0.4 0.1,-0.4 0.1,-0.4 0.1,-0.4 0.1,-0.3 0.1,-0.5 0.1,-0.4 0.1,-0.4 0.1,-0.4 0.1,-0.4 0.1,-0.4 0.1,-0.4 0.1,-0.4 0.1,-0.4 0.1,-0.4 0.1,-0.4 0.1,-0.5 0.1,-0.4 0.1,-0.4 0.1,-0.5 0.1,-0.4 0.1,-0.4 0.1,-0.5 0.1,-0.4 0.1,-0.5 0.1,-0.4 0.1,-0.5 0.1,-0.4 0.1,-0.5 0.1,-0.5 0.1,-0.4 0.1,-0.5 0.1,-0.5 0.1,-0.5 0.1,-0.4 0.1,-0.5 0.1,-0.5 0.1,-0.5 0.1,-0.5 0.1,-0.5 0.1,-0.5 0.1,-0.5 0.1,-0.5 0.1,-0.5 0.1,-0.5 0.1,-0.5 0.1,-0.5 0,-0.5 0.1,-0.5 0.1,-0.5 0.1,-0.5 0.1,-0.6 0.1,-0.5 0.1,-0.5 0.1,-0.6 0.1,-0.5 0.1,-0.6 0.1,-0.5 0.1,-0.6 0.1,-0.5 0.1,-0.6 0.1,-0.5 0.1,-0.6 0.1,-0.5 0.1,-0.6 0.1,-0.6 0.1,-0.6 0.1,-0.5 0.1,-0.6 0.1,-0.6 0.1,-0.6 0.1,-0.6 0.1,-0.6 0.1,-0.6 0.1,-0.6 0.1,-0.6 0.1,-0.6 0.1,-0.6 0.1,-0.6 0.1,-0.7 0.1,-0.6 0.1,-0.6 0.1,-0.6 0.1,-0.7 0.1,-0.6 0.1,-0.6 0.1,-0.7 0.1,-0.6 0.1,-0.7 0.1,-0.7 0.1,-0.7 0.1,-0.7 0.1,-0.7 0.1,-0.7 0.1,-0.7 0.1,-0.7 0.1,-0.7 0.1,-0.7 0.1,-0.8 0.1,-0.7 0.1,-0.7 0.1,-0.7 0.1,-0.8 0.1,-0.7 0.1,-0.8 0.1,-0.8 0.1,-0.7 0.1,-0.8 0.1,-0.8 0.1,-0.8 0.1,-0.8 0.1,-0.8 0.1,-0.8 0.1,-0.9 0.1,-0.8 0.1,-0.8 0.1,-0.9 0.1,-0.8 0.1,-0.8 0.1,-0.9 0.1,-0.9 0.1,-0.9 0.1,-0.8 0.1,-0.9 0.1,-0.9 0.1,-0.9 0.1,-0.9 0.1,-0.9 0.1,-0.9 0.1,-1 0.1,-0.9 0.1,-0.9 0.1,-0.9 0.1,-1 0.1,-0.9 0.1,-1 0.1,-0.9 0.1,-1 0.1,-1 0.1,-1 0.1,-1 0.1,-0.9 0.1,-1.1 0.1,-1 0.1,-1 0.1,-1 0.1,-1.1 0.1,-1 0.1,-1.1 0.1,-1.1 0.1,-1.1 0.1,-1.1 0.1,-1.2 0.1,-1.2 0.1,-1.1 0.1,-1.2 0.1,-1.2 0.1,-1.2 0.1,-1.2 0.1,-1.2 0.1,-1.2 0.1,-1.2 0.1,-1.2 0.1,-1.2 0.1,-1.3 0.1,-1.3 0.1,-1.2 0.1,-1.3 0.1,-1.3 0.1,-1.3 0.1,-1.4 0.1,-1.3 0.1,-1.3 0.1,-1.5 0.1,-1.4 0.1,-1.5 0.1,-1.4 0.1,-1.5 0.1,-1.6 0.1,-1.5 0.1,-1.6 0.1,-1.6 0.1,-1.6 0.1,-1.6 0.1,-1.7 0.1,-1.6 0.1,-1.8 0.1,-1.8 0.1,-1.9 0.1,-1.9 0.1,-1.9 0.1,-2 0.1,-2 0.1,-2.1 0.1,-2 0.1,-2.2 0.1,-2.2 0.1,-2.3 0.1,-2.4 0.1,-2.5 0.1,-2.9 0.1,-2.9 0.1,-3 0.1,-3 0.1,-3.1 0.1,-3.2 0.1,-3.5 0.1,-3.8 0.1,-4.4 0.1,-4.4 0.1,-4.6 0.1,-5.5 0.1,-16.1 h 0.01"
         id="path179"
         style="stroke-width:4;stroke-miterlimit:4;stroke-dasharray:none" />
    </g>
  </g>
  <g
     id="g192"
     style="color:#000000;fill:none;stroke:currentColor;stroke-width:1;stroke-linecap:butt;stroke-linejoin:miter">
    <path
       d="m 71.9,16.7 0,405.7 494.1,0 0,-405.7 -494.1,0 z m 0,0 h 0.01"
       id="path194" />
  </g>
  <path
     d="m 291.8644,216.61017 49.83051,45.76271"
     id="path4685"
     style="fill:none;stroke:#000000;stroke-width:1px;stroke-linecap:butt;stroke-linejoin:miter;stroke-opacity:1;marker-end:url(#Arrow1Lend)" />
  <text
     x="182.14413"
     y="254.11563"
     id="text4679-4"
     xml:space="preserve"
     style="font-size:16px;font-style:normal;font-variant:normal;font-weight:normal;font-stretch:normal;text-align:start;line-height:125%;letter-spacing:0px;word-spacing:0px;writing-mode:lr-tb;text-anchor:start;fill:#000000;fill-opacity:1;stroke:none;font-family:Sans;-inkscape-font-specification:Sans"><tspan
       x="182.14413"
       y="254.11563"
       id="tspan4681-7"
       style="font-size:16px;font-style:normal;font-variant:normal;font-weight:normal;font-stretch:normal;text-align:start;line-height:125%;writing-mode:lr-tb;text-anchor:start;font-family:Sans;-inkscape-font-specification:Sans">most work done</tspan><tspan
       x="182.14413"
       y="274.11563"
       id="tspan4683-2"
       style="font-size:16px;font-style:normal;font-variant:normal;font-weight:normal;font-stretch:normal;text-align:start;line-height:125%;writing-mode:lr-tb;text-anchor:start;font-family:Sans;-inkscape-font-specification:Sans">by fewer people</tspan></text>
  <path
     d="M 70.169492,217.62712 390.50848,81.355932"
     id="path4903"
     style="fill:none;stroke:#000000;stroke-width:4;stroke-linecap:butt;stroke-linejoin:miter;stroke-miterlimit:4;stroke-opacity:1;stroke-dasharray:32, 32;stroke-dashoffset:0" />
  <text
     x="37.453163"
     y="210.7422"
     transform="matrix(0.92387953,-0.38268343,0.38268343,0.92387953,0,0)"
     id="text4905"
     xml:space="preserve"
     style="font-size:16px;font-style:normal;font-variant:normal;font-weight:normal;font-stretch:normal;text-align:start;line-height:125%;letter-spacing:0px;word-spacing:0px;writing-mode:lr-tb;text-anchor:start;fill:#000000;fill-opacity:1;stroke:none;font-family:Sans;-inkscape-font-specification:Sans"><tspan
       x="37.453163"
       y="210.7422"
       id="tspan4907"
       style="font-size:16px;font-style:normal;font-variant:normal;font-weight:normal;font-stretch:normal;text-align:start;line-height:125%;writing-mode:lr-tb;text-anchor:start;font-family:Sans;-inkscape-font-specification:Sans">if everyone contributed equally</tspan></text>
</svg>
